<svg xmlns="http://www.w3.org/2000/svg" xmlns:xlink="http://www.w3.org/1999/xlink" viewBox="0 0 800 145.3"><title>ubnelelment</title><g id="tc_2" data-name="tc 2"><g id="tc_1-2" data-name="tc 1">
<a xlink:href="https://www.ubn-ele.com" target="_blank"><path class="logo-svg" d="M162.9,57.26a6.1,6.1,0,1,1-6.1-6.09A6.1,6.1,0,0,1,162.9,57.26Zm-6.1,10.22a6.09,6.09,0,1,0,6.1,6.09A6.09,6.09,0,0,0,156.8,67.48Zm0,16.3a6.1,6.1,0,1,0,6.1,6.1A6.1,6.1,0,0,0,156.8,83.78Zm0,16.31a6.1,6.1,0,1,0,6.1,6.09A6.09,6.09,0,0,0,156.8,100.09Zm0,32.61a6.1,6.1,0,1,0,6.1,6.09A6.09,6.09,0,0,0,156.8,132.7Zm0-16.31a6.1,6.1,0,1,0,6.1,6.1A6.1,6.1,0,0,0,156.8,116.39Zm43.77-59.13a6.09,6.09,0,1,1-6.09-6.09A6.09,6.09,0,0,1,200.57,57.26Zm-6.09,10.22a6.09,6.09,0,1,0,6.09,6.09A6.08,6.08,0,0,0,194.48,67.48Zm0,16.3a6.1,6.1,0,1,0,6.09,6.1A6.09,6.09,0,0,0,194.48,83.78Zm0,16.31a6.1,6.1,0,1,0,6.09,6.09A6.09,6.09,0,0,0,194.48,100.09Zm0,32.61a6.1,6.1,0,1,0,6.09,6.09A6.09,6.09,0,0,0,194.48,132.7Zm0-16.31a6.1,6.1,0,1,0,6.09,6.1A6.09,6.09,0,0,0,194.48,116.39Zm24.93-59.13a6.1,6.1,0,1,1-6.09-6.09A6.1,6.1,0,0,1,219.41,57.26Zm-6.09,10.22a6.09,6.09,0,1,0,6.09,6.09A6.09,6.09,0,0,0,213.32,67.48Zm0,16.3a6.1,6.1,0,1,0,6.09,6.1A6.1,6.1,0,0,0,213.32,83.78Zm0,16.31a6.1,6.1,0,1,0,6.09,6.09A6.1,6.1,0,0,0,213.32,100.09Zm0,32.61a6.1,6.1,0,1,0,6.09,6.09A6.1,6.1,0,0,0,213.32,132.7Zm0-16.31a6.1,6.1,0,1,0,6.09,6.1A6.1,6.1,0,0,0,213.32,116.39Zm24.93-59.13a6.1,6.1,0,1,1-6.09-6.09A6.1,6.1,0,0,1,238.25,57.26Zm-6.09,10.22a6.09,6.09,0,1,0,6.09,6.09A6.09,6.09,0,0,0,232.16,67.48Zm0,16.3a6.1,6.1,0,1,0,6.09,6.1A6.1,6.1,0,0,0,232.16,83.78Zm0,16.31a6.1,6.1,0,1,0,6.09,6.09A6.1,6.1,0,0,0,232.16,100.09Zm0,32.61a6.1,6.1,0,1,0,6.09,6.09A6.1,6.1,0,0,0,232.16,132.7Zm0-16.31a6.1,6.1,0,1,0,6.09,6.1A6.1,6.1,0,0,0,232.16,116.39Zm24.93-59.13A6.1,6.1,0,1,1,251,51.17,6.1,6.1,0,0,1,257.09,57.26ZM251,67.48a6.09,6.09,0,1,0,6.09,6.09A6.09,6.09,0,0,0,251,67.48Zm0,16.3a6.1,6.1,0,1,0,6.09,6.1A6.1,6.1,0,0,0,251,83.78Zm0,16.31a6.1,6.1,0,1,0,6.09,6.09A6.1,6.1,0,0,0,251,100.09Zm0,32.61a6.1,6.1,0,1,0,6.09,6.09A6.1,6.1,0,0,0,251,132.7Zm0-16.31a6.1,6.1,0,1,0,6.09,6.1A6.1,6.1,0,0,0,251,116.39ZM144.06,57.26a6.1,6.1,0,1,1-6.1-6.09A6.1,6.1,0,0,1,144.06,57.26ZM138,67.48a6.09,6.09,0,1,0,6.1,6.09A6.09,6.09,0,0,0,138,67.48Zm0,16.3a6.1,6.1,0,1,0,6.1,6.1A6.1,6.1,0,0,0,138,83.78Zm0,16.31a6.1,6.1,0,1,0,6.1,6.09A6.09,6.09,0,0,0,138,100.09Zm0,32.61a6.1,6.1,0,1,0,6.1,6.09A6.09,6.09,0,0,0,138,132.7Zm0-16.31a6.1,6.1,0,1,0,6.1,6.1A6.1,6.1,0,0,0,138,116.39ZM106.38,57.26a6.1,6.1,0,1,1-6.09-6.09A6.1,6.1,0,0,1,106.38,57.26Zm-6.09,10.22a6.09,6.09,0,1,0,6.09,6.09A6.09,6.09,0,0,0,100.29,67.48Zm0,16.3a6.1,6.1,0,1,0,6.09,6.1A6.1,6.1,0,0,0,100.29,83.78Zm0,16.31a6.1,6.1,0,1,0,6.09,6.09A6.1,6.1,0,0,0,100.29,100.09Zm0,32.61a6.1,6.1,0,1,0,6.09,6.09A6.1,6.1,0,0,0,100.29,132.7Zm0-16.31a6.1,6.1,0,1,0,6.09,6.1A6.1,6.1,0,0,0,100.29,116.39ZM87.54,57.26a6.1,6.1,0,1,1-6.09-6.09A6.1,6.1,0,0,1,87.54,57.26ZM81.45,67.48a6.09,6.09,0,1,0,6.09,6.09A6.09,6.09,0,0,0,81.45,67.48Zm0,16.3a6.1,6.1,0,1,0,6.09,6.1A6.1,6.1,0,0,0,81.45,83.78Zm0,16.31a6.1,6.1,0,1,0,6.09,6.09A6.1,6.1,0,0,0,81.45,100.09Zm0,32.61a6.1,6.1,0,1,0,6.09,6.09A6.1,6.1,0,0,0,81.45,132.7Zm0-16.31a6.1,6.1,0,1,0,6.09,6.1A6.1,6.1,0,0,0,81.45,116.39ZM49.87,57.26a6.1,6.1,0,1,1-6.1-6.09A6.1,6.1,0,0,1,49.87,57.26Zm-6.1,10.22a6.09,6.09,0,1,0,6.1,6.09A6.09,6.09,0,0,0,43.77,67.48Zm0,16.3a6.1,6.1,0,1,0,6.1,6.1A6.1,6.1,0,0,0,43.77,83.78Zm0,16.31a6.1,6.1,0,1,0,6.1,6.09A6.09,6.09,0,0,0,43.77,100.09Zm0,32.61a6.1,6.1,0,1,0,6.1,6.09A6.09,6.09,0,0,0,43.77,132.7Zm0-16.31a6.1,6.1,0,1,0,6.1,6.1A6.1,6.1,0,0,0,43.77,116.39ZM31,57.26a6.1,6.1,0,1,1-6.1-6.09A6.1,6.1,0,0,1,31,57.26Zm-6.1,10.22A6.09,6.09,0,1,0,31,73.57,6.09,6.09,0,0,0,24.93,67.48Zm0,16.3a6.1,6.1,0,1,0,6.1,6.1A6.1,6.1,0,0,0,24.93,83.78Zm0,16.31a6.1,6.1,0,1,0,6.1,6.09A6.09,6.09,0,0,0,24.93,100.09Zm0,32.61a6.1,6.1,0,1,0,6.1,6.09A6.09,6.09,0,0,0,24.93,132.7Zm0-16.31a6.1,6.1,0,1,0,6.1,6.1A6.1,6.1,0,0,0,24.93,116.39ZM68.7,57.26a6.09,6.09,0,1,1-6.09-6.09A6.09,6.09,0,0,1,68.7,57.26ZM62.61,67.48a6.09,6.09,0,1,0,6.09,6.09A6.08,6.08,0,0,0,62.61,67.48Zm0,16.3a6.1,6.1,0,1,0,6.09,6.1A6.09,6.09,0,0,0,62.61,83.78Zm0,16.31a6.1,6.1,0,1,0,6.09,6.09A6.09,6.09,0,0,0,62.61,100.09Zm0,32.61a6.1,6.1,0,1,0,6.09,6.09A6.09,6.09,0,0,0,62.61,132.7Zm0-16.31a6.1,6.1,0,1,0,6.09,6.1A6.09,6.09,0,0,0,62.61,116.39Zm62.61-59.13a6.1,6.1,0,1,1-6.09-6.09A6.1,6.1,0,0,1,125.22,57.26Zm-6.09,10.22a6.09,6.09,0,1,0,6.09,6.09A6.09,6.09,0,0,0,119.13,67.48Zm0,16.3a6.1,6.1,0,1,0,6.09,6.1A6.1,6.1,0,0,0,119.13,83.78Zm0,16.31a6.1,6.1,0,1,0,6.09,6.09A6.1,6.1,0,0,0,119.13,100.09Zm0,32.61a6.1,6.1,0,1,0,6.09,6.09A6.1,6.1,0,0,0,119.13,132.7Zm0-16.31a6.1,6.1,0,1,0,6.09,6.1A6.1,6.1,0,0,0,119.13,116.39Zm156.8-59.13a6.1,6.1,0,1,1-6.1-6.09A6.1,6.1,0,0,1,275.93,57.26Zm-6.1,10.22a6.09,6.09,0,1,0,6.1,6.09A6.09,6.09,0,0,0,269.83,67.48Zm0,16.3a6.1,6.1,0,1,0,6.1,6.1A6.1,6.1,0,0,0,269.83,83.78Zm0,16.31a6.1,6.1,0,1,0,6.1,6.09A6.09,6.09,0,0,0,269.83,100.09Zm0,32.61a6.1,6.1,0,1,0,6.1,6.09A6.09,6.09,0,0,0,269.83,132.7Zm0-16.31a6.1,6.1,0,1,0,6.1,6.1A6.1,6.1,0,0,0,269.83,116.39Zm24.94-59.13a6.1,6.1,0,1,1-6.1-6.09A6.1,6.1,0,0,1,294.77,57.26Zm-6.1,10.22a6.09,6.09,0,1,0,6.1,6.09A6.09,6.09,0,0,0,288.67,67.48Zm0,16.3a6.1,6.1,0,1,0,6.1,6.1A6.1,6.1,0,0,0,288.67,83.78Zm0,16.31a6.1,6.1,0,1,0,6.1,6.09A6.09,6.09,0,0,0,288.67,100.09Zm0,32.61a6.1,6.1,0,1,0,6.1,6.09A6.09,6.09,0,0,0,288.67,132.7Zm0-16.31a6.1,6.1,0,1,0,6.1,6.1A6.1,6.1,0,0,0,288.67,116.39Zm24.94-59.13a6.1,6.1,0,1,1-6.1-6.09A6.1,6.1,0,0,1,313.61,57.26Zm-6.1,10.22a6.09,6.09,0,1,0,6.1,6.09A6.09,6.09,0,0,0,307.51,67.48Zm0,16.3a6.1,6.1,0,1,0,6.1,6.1A6.1,6.1,0,0,0,307.51,83.78Zm0,16.31a6.1,6.1,0,1,0,6.1,6.09A6.09,6.09,0,0,0,307.51,100.09Zm0,32.61a6.1,6.1,0,1,0,6.1,6.09A6.09,6.09,0,0,0,307.51,132.7Zm0-16.31a6.1,6.1,0,1,0,6.1,6.1A6.1,6.1,0,0,0,307.51,116.39Zm24.93-59.13a6.09,6.09,0,1,1-6.09-6.09A6.09,6.09,0,0,1,332.44,57.26Zm-6.09,10.22a6.09,6.09,0,1,0,6.09,6.09A6.08,6.08,0,0,0,326.35,67.48Zm0,16.3a6.1,6.1,0,1,0,6.09,6.1A6.09,6.09,0,0,0,326.35,83.78Zm0,16.31a6.1,6.1,0,1,0,6.09,6.09A6.09,6.09,0,0,0,326.35,100.09Zm0,32.61a6.1,6.1,0,1,0,6.09,6.09A6.09,6.09,0,0,0,326.35,132.7Zm0-16.31a6.1,6.1,0,1,0,6.09,6.1A6.09,6.09,0,0,0,326.35,116.39Zm24.93-59.13a6.1,6.1,0,1,1-6.09-6.09A6.1,6.1,0,0,1,351.28,57.26Zm-6.09,10.22a6.09,6.09,0,1,0,6.09,6.09A6.09,6.09,0,0,0,345.19,67.48Zm0,16.3a6.1,6.1,0,1,0,6.09,6.1A6.1,6.1,0,0,0,345.19,83.78Zm0,16.31a6.1,6.1,0,1,0,6.09,6.09A6.1,6.1,0,0,0,345.19,100.09Zm0,32.61a6.1,6.1,0,1,0,6.09,6.09A6.1,6.1,0,0,0,345.19,132.7Zm0-16.31a6.1,6.1,0,1,0,6.09,6.1A6.1,6.1,0,0,0,345.19,116.39Zm24.93-59.13A6.1,6.1,0,1,1,364,51.17,6.1,6.1,0,0,1,370.12,57.26ZM364,67.48a6.09,6.09,0,1,0,6.09,6.09A6.09,6.09,0,0,0,364,67.48Zm0,16.3a6.1,6.1,0,1,0,6.09,6.1A6.1,6.1,0,0,0,364,83.78Zm0,16.31a6.1,6.1,0,1,0,6.09,6.09A6.1,6.1,0,0,0,364,100.09Zm0,32.61a6.1,6.1,0,1,0,6.09,6.09A6.1,6.1,0,0,0,364,132.7Zm0-16.31a6.1,6.1,0,1,0,6.09,6.1A6.1,6.1,0,0,0,364,116.39ZM12.19,57.26a6.1,6.1,0,1,1-6.1-6.09A6.1,6.1,0,0,1,12.19,57.26ZM6.09,67.48a6.09,6.09,0,1,0,6.1,6.09A6.09,6.09,0,0,0,6.09,67.48Zm0,16.3a6.1,6.1,0,1,0,6.1,6.1A6.1,6.1,0,0,0,6.09,83.78Zm0,16.31a6.1,6.1,0,1,0,6.1,6.09A6.09,6.09,0,0,0,6.09,100.09Zm0,32.61a6.1,6.1,0,1,0,6.1,6.09A6.09,6.09,0,0,0,6.09,132.7Zm0-16.31a6.1,6.1,0,1,0,6.1,6.1A6.1,6.1,0,0,0,6.09,116.39ZM389,57.26a6.1,6.1,0,1,1-6.09-6.09A6.1,6.1,0,0,1,389,57.26Zm-6.09,10.22A6.09,6.09,0,1,0,389,73.57,6.09,6.09,0,0,0,382.87,67.48Zm0,16.3a6.1,6.1,0,1,0,6.09,6.1A6.1,6.1,0,0,0,382.87,83.78Zm0,16.31a6.1,6.1,0,1,0,6.09,6.09A6.1,6.1,0,0,0,382.87,100.09Zm0,32.61a6.1,6.1,0,1,0,6.09,6.09A6.1,6.1,0,0,0,382.87,132.7Zm0-16.31a6.1,6.1,0,1,0,6.09,6.1A6.1,6.1,0,0,0,382.87,116.39ZM181.74,57.26a6.1,6.1,0,1,1-6.1-6.09A6.1,6.1,0,0,1,181.74,57.26Zm-6.1,10.22a6.09,6.09,0,1,0,6.1,6.09A6.09,6.09,0,0,0,175.64,67.48Zm0,16.3a6.1,6.1,0,1,0,6.1,6.1A6.1,6.1,0,0,0,175.64,83.78Zm0,16.31a6.1,6.1,0,1,0,6.1,6.09A6.09,6.09,0,0,0,175.64,100.09Zm0,32.61a6.1,6.1,0,1,0,6.1,6.09A6.09,6.09,0,0,0,175.64,132.7Zm0-16.31a6.1,6.1,0,1,0,6.1,6.1A6.1,6.1,0,0,0,175.64,116.39Z"/><path d="M430.81,145.3q-16.44-.12-16.49-19.85V102.13h8.5v24.05q0,10.11,5.7,11.51a8.81,8.81,0,0,0,2.29.29q6.6,0,7.89-7.39a26.6,26.6,0,0,0,.33-4.41V102.13h8.17v23.32q0,19.23-15.38,19.85Z"/><path d="M457.32,144.52V102.13H466l12.3,22.59,4.25,9.17h.28Q481.7,122.82,481.7,119V102.13h8.05v42.39h-8.61l-12.25-22.71-4.3-9.06h-.28c.07.75.18,1.94.33,3.58q.74,7.56.73,11.19v17Z"/><path d="M500.15,144.52V102.13h14q15.27.12,15.32,10.46a9.86,9.86,0,0,1-3,7.43,8.21,8.21,0,0,1-2.74,1.68V122q5.93,1.39,7.49,6.65a12.13,12.13,0,0,1,.45,3.36q0,7.94-7.6,11a23.56,23.56,0,0,1-8.78,1.51Zm8.5-25.17h4.92q7.33-.5,7.72-5.53,0-4.2-4.7-5a17,17,0,0,0-2.91-.22h-5Zm0,18.63h5.87q8.9-.06,9-6.44-.11-5.8-9-5.87h-5.87Z"/><path d="M539.13,144.52V102.13h26v7.05h-17.5V119H562.5v7.1H547.63v11.36h18.12v7.1Z"/><path d="M574.3,144.52V102.13h8.5v35.29H600v7.1Z"/><path d="M607.29,144.52V102.13h26v7.05H615.79V119h14.88v7.1H615.79v11.36h18.12v7.1Z"/><path d="M642.47,144.52V102.13h9.39L659.07,122q.73,2.19,2.58,8.17h.28c.26-.82.63-2,1.11-3.64.64-2.05,1.12-3.56,1.46-4.53l7-19.85h9.4v42.39h-7.72V126.85q0-3.07,1.06-13.93H674l-3.41,10-6.54,17.78h-4.86l-6.6-17.78-3.36-10H649q1.07,10.9,1.06,13.93v17.67Z"/><path d="M691.34,144.52V102.13h26v7.05h-17.5V119h14.87v7.1H699.84v11.36H718v7.1Z"/><path d="M726.51,144.52V102.13h8.67l12.3,22.59,4.25,9.17H752q-1.11-11.07-1.12-14.87V102.13H759v42.39h-8.62l-12.24-22.71-4.31-9.06h-.28c.08.75.19,1.94.34,3.58.48,5,.73,8.77.73,11.19v17Z"/><path d="M777.79,144.52V109.18H765.88v-7.05h32.38v7.05h-12v35.34Z"/><path d="M500.16,51.12H467.38a93.28,93.28,0,0,0,26.19,22.7,87.53,87.53,0,0,0,9.12,4.66,45.88,45.88,0,0,0-8.35,9.89,1,1,0,0,1-.19.29Q477,79.84,462.62,62.08a9,9,0,0,1-.67-.77V92.93H449.24V62A103.27,103.27,0,0,1,418,88.08l-1,.48a52.4,52.4,0,0,0-8.44-10,1.21,1.21,0,0,1-.29-.19,91.67,91.67,0,0,0,29.49-20.47q3.3-3.39,6-6.79H411.6V39.38h37.64V26.68H419.07V14.94h30.17V.19H462V14.94h31V26.68H462v12.7h38.21Z"/><path d="M555.84,50.44H538.77a35.32,35.32,0,0,1-.68,4.08q5.63,5.52,18.63,20.75l-7.86,9.9q-4.56-7-13.87-18.63-5.82,16.5-18.72,26a33.89,33.89,0,0,0-7-7.76,13.43,13.43,0,0,0-1.45-1.16q16.09-11.55,19-33.18H509.28V39.29h18.34V23.47h-4A67.87,67.87,0,0,1,517,36.86,53.94,53.94,0,0,0,507.44,30Q515.2,19.5,518.5.1l11.35,2.23c-.58,3.1-1.43,6.53-2.52,10.28h26.28V23.47H539.55V39.29h16.29Zm2.72-41.81h37.83V88.47h-12V82.84H570v7.08H558.56ZM570,71.68h14.35v-52H570Z"/><path d="M676.32,80.12h8.93c1.61,0,2.68-.93,3.2-2.81q.87-3.19,1.26-14.06a26.34,26.34,0,0,0,10.47,4.85,1.83,1.83,0,0,0,.39.09q-1,15.14-4.85,19.6-3,3.39-9.41,3.39H674.38q-9.21,0-12-4.27-2.13-3.39-2.13-11.15V45.4H645.38q-1.65,19-7.47,29-7.08,11.94-22.6,18.24a28.48,28.48,0,0,0-6.7-9,6.87,6.87,0,0,1-.68-.59q15.63-5.91,20.86-18,2.91-6.88,3.78-19.59h-22.5V33.85h88.66V45.4H672.44V75.76c0,2.26.42,3.62,1.26,4.07A8.65,8.65,0,0,0,676.32,80.12ZM689.61,7V18.43H619V7Z"/><path d="M730.45,71.3l11,4.17Q732.77,84,719,90.5c-.77.39-1.55.75-2.33,1.07a59.36,59.36,0,0,0-8.53-7.86,1,1,0,0,1-.29-.19q14.64-5,22.31-11.93ZM800,66.93l-8.83,6.5c-1.29-1.49-2.71-3-4.27-4.46q-8.43.28-27.74.68V92.54H747.62V69.94q-8.45.19-23.86.48-9.22.1-13.1.2L710,61.21q5.63,0,21.25-.2a15.46,15.46,0,0,1,1.84-1c.58-.32,1-.54,1.26-.67a135.15,135.15,0,0,0-16.49-10.29l7.66-6.59c1.68.84,3.4,1.74,5.14,2.71a92.24,92.24,0,0,0,7.28-6.2H709.69V30h37.83V26.19H720.26V17.75h27.26V14h-32.3V5.43h32.3V0h11.74V5.43H793.4V14H759.26v3.78h28.91v8.44H759.26V30h38.51v9H766l9,5a276.94,276.94,0,0,1-25.7,16.78l27.35-.48q-7.08-5-7.66-5.34l8.24-5.92q13.49,8.36,21.34,16.3C799.06,66,799.55,66.48,800,66.93ZM763.82,39H753.24A180.23,180.23,0,0,1,738.6,49.86c2.45,1.49,4.3,2.68,5.53,3.59A179.79,179.79,0,0,0,763.82,39Zm1.65,38,8.73-6Q789.91,78.77,797,84.3l-9.31,6.59q-7.47-6.11-20.85-13.19Z"/></a></g></g></svg>