<svg xmlns="http://www.w3.org/2000/svg" viewBox="0 0 388.96 93.72"><title>ubnelelment</title><g id="tc_2" data-name="tc 2"><g id="tc_1-2" data-name="tc 1"><path d="M162.9,6.09A6.1,6.1,0,1,1,156.8,0,6.1,6.1,0,0,1,162.9,6.09Zm-6.1,10.22a6.09,6.09,0,1,0,6.1,6.09A6.09,6.09,0,0,0,156.8,16.31Zm0,16.3a6.1,6.1,0,1,0,6.1,6.1A6.1,6.1,0,0,0,156.8,32.61Zm0,16.31A6.1,6.1,0,1,0,162.9,55,6.09,6.09,0,0,0,156.8,48.92Zm0,32.61a6.1,6.1,0,1,0,6.1,6.09A6.09,6.09,0,0,0,156.8,81.53Zm0-16.31a6.1,6.1,0,1,0,6.1,6.1A6.1,6.1,0,0,0,156.8,65.22ZM200.57,6.09A6.09,6.09,0,1,1,194.48,0,6.09,6.09,0,0,1,200.57,6.09Zm-6.09,10.22a6.09,6.09,0,1,0,6.09,6.09A6.08,6.08,0,0,0,194.48,16.31Zm0,16.3a6.1,6.1,0,1,0,6.09,6.1A6.09,6.09,0,0,0,194.48,32.61Zm0,16.31A6.1,6.1,0,1,0,200.57,55,6.09,6.09,0,0,0,194.48,48.92Zm0,32.61a6.1,6.1,0,1,0,6.09,6.09A6.09,6.09,0,0,0,194.48,81.53Zm0-16.31a6.1,6.1,0,1,0,6.09,6.1A6.09,6.09,0,0,0,194.48,65.22ZM219.41,6.09A6.1,6.1,0,1,1,213.32,0,6.1,6.1,0,0,1,219.41,6.09Zm-6.09,10.22a6.09,6.09,0,1,0,6.09,6.09A6.09,6.09,0,0,0,213.32,16.31Zm0,16.3a6.1,6.1,0,1,0,6.09,6.1A6.1,6.1,0,0,0,213.32,32.61Zm0,16.31A6.1,6.1,0,1,0,219.41,55,6.1,6.1,0,0,0,213.32,48.92Zm0,32.61a6.1,6.1,0,1,0,6.09,6.09A6.1,6.1,0,0,0,213.32,81.53Zm0-16.31a6.1,6.1,0,1,0,6.09,6.1A6.1,6.1,0,0,0,213.32,65.22ZM238.25,6.09A6.1,6.1,0,1,1,232.16,0,6.1,6.1,0,0,1,238.25,6.09Zm-6.09,10.22a6.09,6.09,0,1,0,6.09,6.09A6.09,6.09,0,0,0,232.16,16.31Zm0,16.3a6.1,6.1,0,1,0,6.09,6.1A6.1,6.1,0,0,0,232.16,32.61Zm0,16.31A6.1,6.1,0,1,0,238.25,55,6.1,6.1,0,0,0,232.16,48.92Zm0,32.61a6.1,6.1,0,1,0,6.09,6.09A6.1,6.1,0,0,0,232.16,81.53Zm0-16.31a6.1,6.1,0,1,0,6.09,6.1A6.1,6.1,0,0,0,232.16,65.22ZM257.09,6.09A6.1,6.1,0,1,1,251,0,6.1,6.1,0,0,1,257.09,6.09ZM251,16.31a6.09,6.09,0,1,0,6.09,6.09A6.09,6.09,0,0,0,251,16.31Zm0,16.3a6.1,6.1,0,1,0,6.09,6.1A6.1,6.1,0,0,0,251,32.61Zm0,16.31A6.1,6.1,0,1,0,257.09,55,6.1,6.1,0,0,0,251,48.92Zm0,32.61a6.1,6.1,0,1,0,6.09,6.09A6.1,6.1,0,0,0,251,81.53Zm0-16.31a6.1,6.1,0,1,0,6.09,6.1A6.1,6.1,0,0,0,251,65.22ZM144.06,6.09A6.1,6.1,0,1,1,138,0,6.1,6.1,0,0,1,144.06,6.09ZM138,16.31a6.09,6.09,0,1,0,6.1,6.09A6.09,6.09,0,0,0,138,16.31Zm0,16.3a6.1,6.1,0,1,0,6.1,6.1A6.1,6.1,0,0,0,138,32.61Zm0,16.31a6.1,6.1,0,1,0,6.1,6.09A6.09,6.09,0,0,0,138,48.92Zm0,32.61a6.1,6.1,0,1,0,6.1,6.09A6.09,6.09,0,0,0,138,81.53Zm0-16.31a6.1,6.1,0,1,0,6.1,6.1A6.1,6.1,0,0,0,138,65.22ZM106.38,6.09A6.1,6.1,0,1,1,100.29,0,6.1,6.1,0,0,1,106.38,6.09Zm-6.09,10.22a6.09,6.09,0,1,0,6.09,6.09A6.09,6.09,0,0,0,100.29,16.31Zm0,16.3a6.1,6.1,0,1,0,6.09,6.1A6.1,6.1,0,0,0,100.29,32.61Zm0,16.31A6.1,6.1,0,1,0,106.38,55,6.1,6.1,0,0,0,100.29,48.92Zm0,32.61a6.1,6.1,0,1,0,6.09,6.09A6.1,6.1,0,0,0,100.29,81.53Zm0-16.31a6.1,6.1,0,1,0,6.09,6.1A6.1,6.1,0,0,0,100.29,65.22ZM87.54,6.09A6.1,6.1,0,1,1,81.45,0,6.1,6.1,0,0,1,87.54,6.09ZM81.45,16.31a6.09,6.09,0,1,0,6.09,6.09A6.09,6.09,0,0,0,81.45,16.31Zm0,16.3a6.1,6.1,0,1,0,6.09,6.1A6.1,6.1,0,0,0,81.45,32.61Zm0,16.31A6.1,6.1,0,1,0,87.54,55,6.1,6.1,0,0,0,81.45,48.92Zm0,32.61a6.1,6.1,0,1,0,6.09,6.09A6.1,6.1,0,0,0,81.45,81.53Zm0-16.31a6.1,6.1,0,1,0,6.09,6.1A6.1,6.1,0,0,0,81.45,65.22ZM49.87,6.09A6.1,6.1,0,1,1,43.77,0,6.1,6.1,0,0,1,49.87,6.09Zm-6.1,10.22a6.09,6.09,0,1,0,6.1,6.09A6.09,6.09,0,0,0,43.77,16.31Zm0,16.3a6.1,6.1,0,1,0,6.1,6.1A6.1,6.1,0,0,0,43.77,32.61Zm0,16.31A6.1,6.1,0,1,0,49.87,55,6.09,6.09,0,0,0,43.77,48.92Zm0,32.61a6.1,6.1,0,1,0,6.1,6.09A6.09,6.09,0,0,0,43.77,81.53Zm0-16.31a6.1,6.1,0,1,0,6.1,6.1A6.1,6.1,0,0,0,43.77,65.22ZM31,6.09A6.1,6.1,0,1,1,24.93,0,6.1,6.1,0,0,1,31,6.09Zm-6.1,10.22A6.09,6.09,0,1,0,31,22.4,6.09,6.09,0,0,0,24.93,16.31Zm0,16.3a6.1,6.1,0,1,0,6.1,6.1A6.1,6.1,0,0,0,24.93,32.61Zm0,16.31A6.1,6.1,0,1,0,31,55,6.09,6.09,0,0,0,24.93,48.92Zm0,32.61A6.1,6.1,0,1,0,31,87.62,6.09,6.09,0,0,0,24.93,81.53Zm0-16.31a6.1,6.1,0,1,0,6.1,6.1A6.1,6.1,0,0,0,24.93,65.22ZM68.7,6.09A6.09,6.09,0,1,1,62.61,0,6.09,6.09,0,0,1,68.7,6.09ZM62.61,16.31A6.09,6.09,0,1,0,68.7,22.4,6.08,6.08,0,0,0,62.61,16.31Zm0,16.3a6.1,6.1,0,1,0,6.09,6.1A6.09,6.09,0,0,0,62.61,32.61Zm0,16.31A6.1,6.1,0,1,0,68.7,55,6.09,6.09,0,0,0,62.61,48.92Zm0,32.61a6.1,6.1,0,1,0,6.09,6.09A6.09,6.09,0,0,0,62.61,81.53Zm0-16.31a6.1,6.1,0,1,0,6.09,6.1A6.09,6.09,0,0,0,62.61,65.22ZM125.22,6.09A6.1,6.1,0,1,1,119.13,0,6.1,6.1,0,0,1,125.22,6.09Zm-6.09,10.22a6.09,6.09,0,1,0,6.09,6.09A6.09,6.09,0,0,0,119.13,16.31Zm0,16.3a6.1,6.1,0,1,0,6.09,6.1A6.1,6.1,0,0,0,119.13,32.61Zm0,16.31A6.1,6.1,0,1,0,125.22,55,6.1,6.1,0,0,0,119.13,48.92Zm0,32.61a6.1,6.1,0,1,0,6.09,6.09A6.1,6.1,0,0,0,119.13,81.53Zm0-16.31a6.1,6.1,0,1,0,6.09,6.1A6.1,6.1,0,0,0,119.13,65.22ZM275.93,6.09A6.1,6.1,0,1,1,269.83,0,6.1,6.1,0,0,1,275.93,6.09Zm-6.1,10.22a6.09,6.09,0,1,0,6.1,6.09A6.09,6.09,0,0,0,269.83,16.31Zm0,16.3a6.1,6.1,0,1,0,6.1,6.1A6.1,6.1,0,0,0,269.83,32.61Zm0,16.31a6.1,6.1,0,1,0,6.1,6.09A6.09,6.09,0,0,0,269.83,48.92Zm0,32.61a6.1,6.1,0,1,0,6.1,6.09A6.09,6.09,0,0,0,269.83,81.53Zm0-16.31a6.1,6.1,0,1,0,6.1,6.1A6.1,6.1,0,0,0,269.83,65.22ZM294.77,6.09A6.1,6.1,0,1,1,288.67,0,6.1,6.1,0,0,1,294.77,6.09Zm-6.1,10.22a6.09,6.09,0,1,0,6.1,6.09A6.09,6.09,0,0,0,288.67,16.31Zm0,16.3a6.1,6.1,0,1,0,6.1,6.1A6.1,6.1,0,0,0,288.67,32.61Zm0,16.31a6.1,6.1,0,1,0,6.1,6.09A6.09,6.09,0,0,0,288.67,48.92Zm0,32.61a6.1,6.1,0,1,0,6.1,6.09A6.09,6.09,0,0,0,288.67,81.53Zm0-16.31a6.1,6.1,0,1,0,6.1,6.1A6.1,6.1,0,0,0,288.67,65.22ZM313.61,6.09A6.1,6.1,0,1,1,307.51,0,6.1,6.1,0,0,1,313.61,6.09Zm-6.1,10.22a6.09,6.09,0,1,0,6.1,6.09A6.09,6.09,0,0,0,307.51,16.31Zm0,16.3a6.1,6.1,0,1,0,6.1,6.1A6.1,6.1,0,0,0,307.51,32.61Zm0,16.31a6.1,6.1,0,1,0,6.1,6.09A6.09,6.09,0,0,0,307.51,48.92Zm0,32.61a6.1,6.1,0,1,0,6.1,6.09A6.09,6.09,0,0,0,307.51,81.53Zm0-16.31a6.1,6.1,0,1,0,6.1,6.1A6.1,6.1,0,0,0,307.51,65.22ZM332.44,6.09A6.09,6.09,0,1,1,326.35,0,6.09,6.09,0,0,1,332.44,6.09Zm-6.09,10.22a6.09,6.09,0,1,0,6.09,6.09A6.08,6.08,0,0,0,326.35,16.31Zm0,16.3a6.1,6.1,0,1,0,6.09,6.1A6.09,6.09,0,0,0,326.35,32.61Zm0,16.31A6.1,6.1,0,1,0,332.44,55,6.09,6.09,0,0,0,326.35,48.92Zm0,32.61a6.1,6.1,0,1,0,6.09,6.09A6.09,6.09,0,0,0,326.35,81.53Zm0-16.31a6.1,6.1,0,1,0,6.09,6.1A6.09,6.09,0,0,0,326.35,65.22ZM351.28,6.09A6.1,6.1,0,1,1,345.19,0,6.1,6.1,0,0,1,351.28,6.09Zm-6.09,10.22a6.09,6.09,0,1,0,6.09,6.09A6.09,6.09,0,0,0,345.19,16.31Zm0,16.3a6.1,6.1,0,1,0,6.09,6.1A6.1,6.1,0,0,0,345.19,32.61Zm0,16.31A6.1,6.1,0,1,0,351.28,55,6.1,6.1,0,0,0,345.19,48.92Zm0,32.61a6.1,6.1,0,1,0,6.09,6.09A6.1,6.1,0,0,0,345.19,81.53Zm0-16.31a6.1,6.1,0,1,0,6.09,6.1A6.1,6.1,0,0,0,345.19,65.22ZM370.12,6.09A6.1,6.1,0,1,1,364,0,6.1,6.1,0,0,1,370.12,6.09ZM364,16.31a6.09,6.09,0,1,0,6.09,6.09A6.09,6.09,0,0,0,364,16.31Zm0,16.3a6.1,6.1,0,1,0,6.09,6.1A6.1,6.1,0,0,0,364,32.61Zm0,16.31A6.1,6.1,0,1,0,370.12,55,6.1,6.1,0,0,0,364,48.92Zm0,32.61a6.1,6.1,0,1,0,6.09,6.09A6.1,6.1,0,0,0,364,81.53Zm0-16.31a6.1,6.1,0,1,0,6.09,6.1A6.1,6.1,0,0,0,364,65.22ZM12.19,6.09A6.1,6.1,0,1,1,6.09,0,6.1,6.1,0,0,1,12.19,6.09ZM6.09,16.31a6.09,6.09,0,1,0,6.1,6.09A6.09,6.09,0,0,0,6.09,16.31Zm0,16.3a6.1,6.1,0,1,0,6.1,6.1A6.1,6.1,0,0,0,6.09,32.61Zm0,16.31A6.1,6.1,0,1,0,12.19,55,6.09,6.09,0,0,0,6.09,48.92Zm0,32.61a6.1,6.1,0,1,0,6.1,6.09A6.09,6.09,0,0,0,6.09,81.53Zm0-16.31a6.1,6.1,0,1,0,6.1,6.1A6.1,6.1,0,0,0,6.09,65.22ZM389,6.09A6.1,6.1,0,1,1,382.87,0,6.1,6.1,0,0,1,389,6.09Zm-6.09,10.22A6.09,6.09,0,1,0,389,22.4,6.09,6.09,0,0,0,382.87,16.31Zm0,16.3a6.1,6.1,0,1,0,6.09,6.1A6.1,6.1,0,0,0,382.87,32.61Zm0,16.31A6.1,6.1,0,1,0,389,55,6.1,6.1,0,0,0,382.87,48.92Zm0,32.61A6.1,6.1,0,1,0,389,87.62,6.1,6.1,0,0,0,382.87,81.53Zm0-16.31a6.1,6.1,0,1,0,6.09,6.1A6.1,6.1,0,0,0,382.87,65.22ZM181.74,6.09A6.1,6.1,0,1,1,175.64,0,6.1,6.1,0,0,1,181.74,6.09Zm-6.1,10.22a6.09,6.09,0,1,0,6.1,6.09A6.09,6.09,0,0,0,175.64,16.31Zm0,16.3a6.1,6.1,0,1,0,6.1,6.1A6.1,6.1,0,0,0,175.64,32.61Zm0,16.31a6.1,6.1,0,1,0,6.1,6.09A6.09,6.09,0,0,0,175.64,48.92Zm0,32.61a6.1,6.1,0,1,0,6.1,6.09A6.09,6.09,0,0,0,175.64,81.53Zm0-16.31a6.1,6.1,0,1,0,6.1,6.1A6.1,6.1,0,0,0,175.64,65.22Z"/></g></g></svg>